<svg width="24" height="24" viewBox="0 0 24 24" fill="none" xmlns="http://www.w3.org/2000/svg">
    <path d="M18.2378 6.24171C17.0905 5.71531 15.8602 5.32741 14.5739 5.10531C14.5505 5.10101 14.5271 5.11171 14.515 5.13321C14.3568 5.41461 14.1815 5.78171 14.0588 6.07031C12.6753 5.86311 11.2989 5.86311 9.94369 6.07031C9.82099 5.77531 9.63939 5.41461 9.48039 5.13321C9.46839 5.11251 9.44499 5.10171 9.42149 5.10531C8.13589 5.32671 6.90569 5.71461 5.75769 6.24171C5.74779 6.24601 5.73919 6.25311 5.73359 6.26241C3.39999 9.74871 2.76079 13.1493 3.07439 16.5077C3.07579 16.5241 3.08499 16.5398 3.09779 16.5498C4.63739 17.6805 6.12879 18.3669 7.59249 18.8218C7.61589 18.829 7.64069 18.8204 7.65559 18.8011C8.00179 18.3283 8.31049 17.8298 8.57509 17.3055C8.59069 17.2748 8.57579 17.2384 8.54389 17.2262C8.05429 17.0405 7.58819 16.8141 7.13979 16.557C7.10429 16.5363 7.10149 16.4855 7.13409 16.4612C7.22849 16.3905 7.32289 16.317 7.41299 16.2427C7.42929 16.2291 7.45199 16.2262 7.47109 16.2348C10.417 17.5798 13.6062 17.5798 16.5172 16.2348C16.5364 16.2255 16.5591 16.2284 16.5761 16.242C16.6662 16.3162 16.7606 16.3905 16.8557 16.4612C16.8883 16.4855 16.8862 16.5363 16.8507 16.557C16.4023 16.8191 15.9361 17.0405 15.4459 17.2255C15.414 17.2376 15.3998 17.2748 15.4154 17.3055C15.6857 17.829 15.9943 18.3276 16.3342 18.8004C16.3484 18.8204 16.3739 18.829 16.3973 18.8218C17.8681 18.3669 19.3595 17.6805 20.8991 16.5498C20.9126 16.5398 20.9211 16.5248 20.9225 16.5084C21.2978 12.6257 20.2939 9.25301 18.2612 6.26311C18.2562 6.25311 18.2477 6.24601 18.2378 6.24171ZM9.01499 14.4628C8.12809 14.4628 7.39729 13.6485 7.39729 12.6486C7.39729 11.6486 8.11399 10.8344 9.01499 10.8344C9.92319 10.8344 10.6469 11.6557 10.6327 12.6486C10.6327 13.6485 9.91609 14.4628 9.01499 14.4628ZM14.9961 14.4628C14.1092 14.4628 13.3784 13.6485 13.3784 12.6486C13.3784 11.6486 14.095 10.8344 14.9961 10.8344C15.9042 10.8344 16.6279 11.6557 16.6137 12.6486C16.6137 13.6485 15.9042 14.4628 14.9961 14.4628Z" fill="white"/>
</svg>