<svg width="24" height="24" viewBox="0 0 24 24" fill="none" xmlns="http://www.w3.org/2000/svg">
<path fill-rule="evenodd" clip-rule="evenodd" d="M15.8793 12.9707C18.8449 12.9707 21.25 15.2041 21.25 17.6114V19.2169C21.25 19.8166 20.7644 20.3032 20.1637 20.3032H17.2622C16.6636 20.3032 16.1759 19.8166 16.1759 19.2169V17.4147C16.1759 15.819 15.5339 14.3307 14.4725 13.1477C14.9212 13.0369 15.3926 12.9707 15.8793 12.9707ZM8.5129 12.4349C11.6957 12.4349 14.2757 14.8313 14.2757 17.4145V19.2167C14.2757 19.8163 13.789 20.303 13.1894 20.303H3.8363C3.2367 20.303 2.75 19.8163 2.75 19.2167V17.4145C2.75 14.8313 5.33 12.4349 8.5129 12.4349ZM16.1742 6.11978C17.6744 6.11978 18.8911 7.33538 18.8911 8.83658C18.8911 10.3368 17.6744 11.5513 16.1742 11.5513C14.6751 11.5513 13.4596 10.3368 13.4596 8.83658C13.4596 7.33538 14.6751 6.11978 16.1742 6.11978ZM8.5129 3.69678C10.4258 3.69678 11.976 5.24688 11.976 7.15988C11.976 9.07288 10.4258 10.6231 8.5129 10.6231C6.5999 10.6231 5.0497 9.07288 5.0497 7.15988C5.0497 5.24688 6.5999 3.69678 8.5129 3.69678Z" fill="white"/>
</svg>
