<svg width="24" height="24" viewBox="0 0 24 24" fill="none" xmlns="http://www.w3.org/2000/svg">
<path fill-rule="evenodd" clip-rule="evenodd" d="M24 12C24 18.6274 18.6274 24 12 24C5.37258 24 0 18.6274 0 12C0 5.37258 5.37258 0 12 0C18.6274 0 24 5.37258 24 12ZM12.4299 8.85983C11.2523 9.34581 8.91589 10.3365 5.42056 11.8692C4.85982 12.0935 4.56075 12.3178 4.52337 12.5234C4.47391 12.8861 4.93332 13.0306 5.55538 13.2264C5.63865 13.2526 5.72482 13.2797 5.81309 13.3084C6.42991 13.514 7.25234 13.757 7.68225 13.757C8.07477 13.757 8.50468 13.6075 8.99066 13.271C12.2617 11.0654 13.9439 9.94394 14.0561 9.92525C14.1308 9.90656 14.2243 9.88787 14.2991 9.94394C14.3634 9.99221 14.3585 10.082 14.3559 10.1299C14.3555 10.1377 14.3551 10.1443 14.3551 10.1495C14.3146 10.3389 12.6893 11.8488 11.7297 12.7402C11.3628 13.0811 11.0933 13.3315 11.0467 13.3832C10.9546 13.4778 10.8608 13.5676 10.7704 13.654C10.2005 14.1991 9.76863 14.6121 10.7851 15.2897C11.3322 15.6479 11.7576 15.9372 12.1936 16.2337C12.5768 16.4944 12.9683 16.7606 13.4579 17.0841C13.6011 17.1756 13.7383 17.2712 13.8722 17.3646C14.3682 17.7104 14.82 18.0255 15.3645 17.9813C15.6822 17.9439 16.0187 17.6449 16.1869 16.7477C16.5981 14.6355 17.3645 10.0187 17.5514 8.13086C17.5701 7.96263 17.5514 7.75703 17.5327 7.66357C17.514 7.57011 17.4766 7.43927 17.3645 7.34581C17.215 7.23366 16.9907 7.21497 16.8972 7.21497C16.4486 7.23366 15.757 7.47665 12.4299 8.85983Z" fill="white"/>
</svg>
