<svg width="24" height="24" viewBox="0 0 24 24" fill="none" xmlns="http://www.w3.org/2000/svg">
    <path d="M6.82791 10.6871C7.17081 10.3442 7.72661 10.3454 8.06951 10.6883L11.106 13.7353L15.9317 8.89561C16.2746 8.55161 16.8292 8.55041 17.1732 8.89331C17.5161 9.23611 17.5173 9.79081 17.1756 10.1336L12.096 15.2284C11.8327 15.4929 11.4816 15.6392 11.1072 15.6392H11.106C10.7316 15.6392 10.3805 15.4929 10.1161 15.2284L6.82561 11.9286C6.48391 11.5846 6.48511 11.0288 6.82791 10.6871ZM21.8 12C21.8 6.59631 17.4049 2.20001 12 2.20001C6.59631 2.20001 2.20001 6.59631 2.20001 12C2.20001 17.4037 6.59631 21.8 12 21.8C17.4049 21.8 21.8 17.4037 21.8 12Z" fill="white"/>
</svg>