<svg width="24" height="24" viewBox="0 0 24 24" fill="none" xmlns="http://www.w3.org/2000/svg">
<path fill-rule="evenodd" clip-rule="evenodd" d="M12.7774 4.06481L14.8284 8.15381C14.9374 8.49081 15.2514 8.71881 15.6054 8.71881L19.9324 9.53581C20.7244 9.53581 21.0534 10.5488 20.4134 11.0148L17.2884 14.1508C17.0024 14.3588 16.8824 14.7288 16.9914 15.0648L17.6804 19.4258C17.9244 20.1798 17.0634 20.8058 16.4224 20.3398L12.4804 18.0218C12.1944 17.8138 11.8064 17.8138 11.5194 18.0218L7.5774 20.3398C6.9374 20.8058 6.0754 20.1798 6.3194 19.4258L7.0074 15.0648C7.1174 14.7288 6.9974 14.3588 6.7114 14.1508L3.5874 11.0148C2.9464 10.5488 3.2754 9.53581 4.0674 9.53581L8.3944 8.71881C8.7484 8.71881 9.0624 8.49081 9.1724 8.15381L11.2224 4.06481C11.4674 3.31181 12.5324 3.31181 12.7774 4.06481Z" stroke="white" stroke-width="1.5" stroke-linecap="round" stroke-linejoin="round"/>
</svg>
