<svg width="24" height="24" viewBox="0 0 24 24" fill="none" xmlns="http://www.w3.org/2000/svg">
<path fill-rule="evenodd" clip-rule="evenodd" d="M15.6055 8.71812C15.2515 8.71812 14.9375 8.49012 14.8285 8.15412L12.7775 4.06512C12.5335 3.31212 11.4675 3.31212 11.2225 4.06512L9.17153 8.15412C9.06253 8.49012 8.74953 8.71812 8.39453 8.71812L4.06753 9.53512C3.27553 9.53512 2.94653 10.5491 3.58653 11.0141L6.71053 14.1511C6.99853 14.3591 7.11753 14.7281 7.00753 15.0651L6.32053 19.4261C6.07553 20.1791 6.93753 20.8051 7.57853 20.3401L11.5195 18.0211C11.8055 17.8131 12.1945 17.8131 12.4805 18.0211L16.4215 20.3401C17.0625 20.8051 17.9245 20.1791 17.6805 19.4261L16.9925 15.0651C16.8825 14.7281 17.0025 14.3591 17.2895 14.1511L20.4135 11.0141C21.0535 10.5491 20.7245 9.53512 19.9325 9.53512L15.6055 8.71812Z" fill="white"/>
</svg>
