<svg width="24" height="24" viewBox="0 0 24 24" fill="none" xmlns="http://www.w3.org/2000/svg">
<path d="M9.303 14.32L4 19.621M14.364 4L19.667 9.303M18.982 8.663L13.91 14.53L13.469 16.64C13.4507 16.7283 13.4088 16.81 13.3478 16.8764C13.2868 16.9429 13.209 16.9916 13.1226 17.0174C13.0363 17.0432 12.9445 17.0452 12.857 17.0231C12.7696 17.0011 12.6898 16.9557 12.626 16.892L6.863 11.129C6.79927 11.0654 6.75391 10.9857 6.73172 10.8984C6.70954 10.8111 6.71134 10.7194 6.73695 10.633C6.76256 10.5467 6.81102 10.4689 6.87721 10.4078C6.94341 10.3467 7.02487 10.3046 7.113 10.286L9.225 9.845L15.092 4.774M5 4L20 19" stroke="white" stroke-width="1.5" stroke-linecap="round" stroke-linejoin="round"/>
</svg>
