<svg width="24" height="24" viewBox="0 0 24 24" fill="none" xmlns="http://www.w3.org/2000/svg">
<path fill-rule="evenodd" clip-rule="evenodd" d="M19.2186 4.5979C17.2306 2.6169 13.9936 2.6169 12.0056 4.5979L3.50763 13.0659C3.21363 13.3579 3.21263 13.8329 3.50563 14.1259C3.79763 14.4199 4.27263 14.4199 4.56663 14.1279L13.0646 5.6599C14.4686 4.2599 16.7546 4.2599 18.1586 5.6599C18.8386 6.3379 19.2136 7.2389 19.2136 8.1969C19.2136 9.1549 18.8386 10.0559 18.1596 10.7339L9.92163 18.9409C9.32363 19.5379 8.35063 19.5369 7.75163 18.9409C7.46263 18.6519 7.30263 18.2689 7.30263 17.8619C7.30263 17.4539 7.46163 17.0709 7.75063 16.7829L15.2806 9.2819C15.5726 8.9889 15.5736 8.5139 15.2816 8.2209C14.9896 7.9269 14.5146 7.9259 14.2216 8.2189L6.69263 15.7199C6.11863 16.2919 5.80263 17.0529 5.80263 17.8619C5.80363 18.6699 6.11863 19.4309 6.69263 20.0019C7.28363 20.5929 8.06063 20.8879 8.83763 20.8879C9.61462 20.8879 10.3906 20.5929 10.9816 20.0019L19.2186 11.7949C20.1826 10.8339 20.7136 9.5559 20.7136 8.1969C20.7136 6.8369 20.1826 5.5589 19.2186 4.5979Z" fill="white"/>
</svg>
