<svg width="24" height="24" viewBox="0 0 24 24" fill="none" xmlns="http://www.w3.org/2000/svg">
<path fill-rule="evenodd" clip-rule="evenodd" d="M14.6531 6.823C15.4781 6.823 16.1531 7.498 16.1531 8.323V18.073C16.1531 19.448 15.0281 20.573 13.6531 20.573H6.90311C5.52811 20.573 4.40311 19.448 4.40311 18.073V9.323C4.40311 7.948 5.52811 6.823 6.90311 6.823H14.6531ZM15.9719 3.427C17.9709 3.427 19.5969 5.053 19.5969 7.052V16.117C19.5969 16.601 19.2049 16.992 18.7219 16.992C18.2389 16.992 17.8469 16.601 17.8469 16.117V7.052C17.8469 6.018 17.0059 5.177 15.9719 5.177H8.96691C8.48291 5.177 8.09191 4.785 8.09191 4.302C8.09191 3.819 8.48291 3.427 8.96691 3.427H15.9719Z" fill="white"/>
</svg>
