<svg width="24" height="24" viewBox="0 0 24 24" fill="none" xmlns="http://www.w3.org/2000/svg">
<path d="M4.29999 21.1H19.7C21.4 21.1 22.8 19.7 22.8 18V9C22.8 7.3 21.4 5.9 19.7 5.9H13.3C12.9 5.9 12.7 5.8 12.4 5.5L10.3 3.5C9.99999 3.3 9.39999 3 8.89999 3H4.29999C2.59999 3 1.29999 4.4 1.29999 6.1V18.1C1.29999 19.7 2.59999 21.1 4.29999 21.1ZM8.19999 12.7H11.1V9.7C11.1 9.2 11.5 8.8 12 8.8C12.5 8.8 12.9 9.2 12.9 9.7V12.6H15.8C16.3 12.6 16.7 13 16.7 13.5C16.7 14 16.3 14.4 15.8 14.4H12.9V17.3C12.9 17.8 12.5 18.2 12 18.2C11.5 18.2 11.1 17.8 11.1 17.3V14.4H8.19999C7.69999 14.4 7.29999 14 7.29999 13.5C7.19999 13.1 7.69999 12.7 8.19999 12.7Z" fill="white"/>
</svg>
