<svg width="24" height="24" viewBox="0 0 24 24" fill="none" xmlns="http://www.w3.org/2000/svg">
<path fill-rule="evenodd" clip-rule="evenodd" d="M8.25012 12.6255H13.3951L12.0071 11.2385C11.7141 10.9455 11.7141 10.4715 12.0071 10.1785C12.3001 9.8855 12.7751 9.8855 13.0681 10.1785L15.3811 12.4895C15.6191 12.7285 15.7501 13.0445 15.7501 13.3815C15.7501 13.7175 15.6181 14.0335 15.3791 14.2715L13.0671 16.5735C12.9201 16.7195 12.7291 16.7915 12.5381 16.7915C12.3451 16.7915 12.1531 16.7185 12.0061 16.5705C11.7141 16.2775 11.7151 15.8025 12.0091 15.5105L13.4001 14.1255H8.25012C7.83512 14.1255 7.50012 13.7895 7.50012 13.3755C7.50012 12.9605 7.83512 12.6255 8.25012 12.6255ZM3.00012 17.2505C3.00012 18.6255 4.12512 19.7505 5.50012 19.7505H18.0001C19.3751 19.7505 20.5001 18.6255 20.5001 17.2505V9.9105C20.5001 8.5355 19.3751 7.4105 18.0001 7.4105H12.8021C12.4421 7.4105 12.3231 7.3425 12.0781 7.0785L10.3541 5.4795C10.1081 5.2165 9.61412 5.0005 9.25312 5.0005H5.50012C4.12512 5.0005 3.00012 6.1255 3.00012 7.5005V17.2505Z" fill="white"/>
</svg>
