<svg width="24" height="24" viewBox="0 0 24 24" fill="none" xmlns="http://www.w3.org/2000/svg">
<path d="M19.18 18.281L17.833 19.628L15.354 17.15L7.782 17.158C7.684 17.155 7.586 17.158 7.487 17.158C4.995 17.158 2.974 15.138 2.974 12.645C2.974 10.508 4.46 8.718 6.454 8.251L4.005 5.8L5.352 4.452L19.18 18.281ZM12 4.372C14.236 4.372 16.093 5.998 16.451 8.133H16.513C19.005 8.133 21.026 10.153 21.026 12.645C21.026 13.961 20.463 15.145 19.565 15.97L9.057 5.463C9.847 4.783 10.876 4.372 12 4.372Z" fill="white"/>
</svg>
