<svg width="24" height="24" viewBox="0 0 24 24" fill="none" xmlns="http://www.w3.org/2000/svg">
<path d="M16.3036 15.325C15.6816 15.325 15.1136 15.554 14.6766 15.929L9.07764 12.621C9.12964 12.422 9.15864 12.215 9.15864 12C9.15864 11.786 9.12964 11.579 9.07864 11.38L14.6766 8.07C15.1136 8.446 15.6816 8.675 16.3036 8.675C17.6846 8.675 18.8036 7.555 18.8036 6.177C18.8036 4.795 17.6846 3.675 16.3036 3.675C14.9226 3.675 13.8026 4.795 13.8026 6.177C13.8026 6.39 13.8326 6.597 13.8836 6.797L8.28664 10.105C7.84864 9.729 7.28164 9.501 6.65964 9.501C5.27964 9.501 4.16064 10.621 4.16064 12C4.16064 13.38 5.27964 14.501 6.65964 14.501C7.28164 14.501 7.84864 14.271 8.28664 13.895L13.8846 17.204C13.8326 17.403 13.8036 17.61 13.8036 17.825C13.8036 19.207 14.9226 20.325 16.3036 20.325C17.6846 20.325 18.8036 19.207 18.8036 17.825C18.8036 16.445 17.6846 15.325 16.3036 15.325Z" fill="white"/>
</svg>
