<svg width="24" height="24" viewBox="0 0 24 24" fill="none" xmlns="http://www.w3.org/2000/svg">
<path d="M18.222 4.1676C20.0136 4.1676 21.4716 5.6256 21.4716 7.4172V16.5828C21.4716 18.3756 20.0136 19.8336 18.222 19.8336H5.97604C4.18324 19.8336 2.72524 18.3756 2.72524 16.5828V15.5004C2.72524 15.0864 3.06124 14.7504 3.47524 14.7504C3.88924 14.7504 4.22524 15.0864 4.22524 15.5004V16.5828C4.22524 17.5476 5.01124 18.3336 5.97604 18.3336H18.222C19.1868 18.3336 19.9716 17.5476 19.9716 16.5828V7.4172C19.9716 6.4524 19.1868 5.6664 18.222 5.6664H5.97604C5.01124 5.6664 4.22524 6.4524 4.22524 7.4172V8.4996C4.22524 8.9148 3.88924 9.2496 3.47524 9.2496C3.06124 9.2496 2.72524 8.9148 2.72524 8.4996V7.4172C2.72524 5.6256 4.18324 4.1676 5.97604 4.1676H18.222ZM9.18004 8.34C9.46684 8.0412 9.94204 8.0316 10.242 8.3184L13.1496 11.1096C13.3908 11.3424 13.5288 11.6664 13.5288 12.0012C13.5288 12.3348 13.3908 12.6588 13.1496 12.8916L10.242 15.6828C10.0956 15.822 9.90844 15.8916 9.72124 15.8916C9.52444 15.8916 9.32764 15.8136 9.18004 15.66C8.89324 15.3624 8.90404 14.8872 9.20284 14.6004L11.1288 12.75H3.27844C2.86444 12.75 2.52844 12.4152 2.52844 12C2.52844 11.586 2.86444 11.25 3.27844 11.25H11.1288L9.20284 9.3996C8.90404 9.1128 8.89324 8.6388 9.18004 8.34Z" fill="white"/>
</svg>
