<svg width="24" height="24" viewBox="0 0 24 24" fill="none" xmlns="http://www.w3.org/2000/svg">
<path fill-rule="evenodd" clip-rule="evenodd" d="M14.249 2.9375C14.939 2.9375 15.499 3.4985 15.499 4.1875V6.1875H19.686C20.1 6.1875 20.436 6.5235 20.436 6.9375C20.436 7.3525 20.1 7.6875 19.686 7.6875H18.334L17.427 18.9535C17.334 20.1165 16.308 21.0625 15.142 21.0625H8.85803C7.69203 21.0625 6.66703 20.1165 6.57303 18.9535L5.66703 7.6875H4.31403C3.90003 7.6875 3.56403 7.3525 3.56403 6.9375C3.56403 6.5235 3.90003 6.1875 4.31403 6.1875H8.49903V4.1875C8.49903 3.4985 9.06003 2.9375 9.74903 2.9375H14.249ZM10.131 10.8515C9.71603 10.8515 9.38103 11.1875 9.38103 11.6015V16.0515C9.38103 16.4665 9.71603 16.8015 10.131 16.8015C10.545 16.8015 10.881 16.4665 10.881 16.0515V11.6015C10.881 11.1875 10.545 10.8515 10.131 10.8515ZM13.87 10.8515C13.456 10.8515 13.12 11.1875 13.12 11.6015V16.0515C13.12 16.4665 13.456 16.8015 13.87 16.8015C14.284 16.8015 14.62 16.4665 14.62 16.0515V11.6015C14.62 11.1875 14.284 10.8515 13.87 10.8515ZM13.999 4.4375H9.99903V6.1875H13.999V4.4375Z" fill="white"/>
</svg>
