<svg width="24" height="24" viewBox="0 0 24 24" fill="none" xmlns="http://www.w3.org/2000/svg">
<path fill-rule="evenodd" clip-rule="evenodd" d="M18.1534 19.6135C18.5674 19.6135 18.9034 19.9495 18.9034 20.3635C18.9034 20.7775 18.5674 21.1135 18.1534 21.1135H5.84644C5.43244 21.1135 5.09644 20.7775 5.09644 20.3635C5.09644 19.9495 5.43244 19.6135 5.84644 19.6135H18.1534ZM11.9999 2.8865C12.4369 2.8865 12.8599 3.0675 13.1609 3.3825L17.6999 8.1175C17.9869 8.4175 17.9769 8.8915 17.6779 9.1775C17.5319 9.3175 17.3449 9.3865 17.1579 9.3865C16.9609 9.3865 16.7649 9.3095 16.6169 9.1555L12.7589 5.1305V17.1915C12.7589 17.6055 12.4229 17.9415 12.0089 17.9415C11.5949 17.9415 11.2589 17.6055 11.2589 17.1915V5.1115L7.38294 9.1555C7.09694 9.4555 6.62194 9.4655 6.32194 9.1775C6.02394 8.8915 6.01394 8.4175 6.29994 8.1175L10.8389 3.3825C11.1409 3.0675 11.5639 2.8865 11.9999 2.8865Z" fill="white"/>
</svg>
