<svg width="24" height="24" viewBox="0 0 24 24" fill="none" xmlns="http://www.w3.org/2000/svg">
<path d="M16.4876 10.3125C16.8741 10.3125 17.1924 10.605 17.2331 10.9808L17.2376 11.0625L17.2374 14.312L20.4876 14.3125C20.9018 14.3125 21.2376 14.6483 21.2376 15.0625C21.2376 15.4491 20.945 15.7674 20.5692 15.8081L20.4876 15.8125L17.2374 15.812L17.2376 19.0625C17.2376 19.4767 16.9018 19.8125 16.4876 19.8125C16.101 19.8125 15.7826 19.52 15.742 19.1442L15.7376 19.0625L15.7374 15.812L12.4876 15.8125C12.0733 15.8125 11.7376 15.4767 11.7376 15.0625C11.7376 14.6759 12.03 14.3576 12.4058 14.3169L12.4876 14.3125L15.7374 14.312L15.7376 11.0625C15.7376 10.6483 16.0733 10.3125 16.4876 10.3125ZM8.97124 17.8877C9.38545 17.8877 9.72124 18.2235 9.72124 18.6377C9.72124 19.0243 9.42871 19.3426 9.05298 19.3833L8.97124 19.3877H4.25024C3.83604 19.3877 3.50024 19.0519 3.50024 18.6377C3.50024 18.2511 3.79278 17.9328 4.16851 17.8921L4.25024 17.8877H8.97124ZM8.97124 11.1943C9.38545 11.1943 9.72124 11.5301 9.72124 11.9443C9.72124 12.3309 9.42871 12.6492 9.05298 12.6899L8.97124 12.6943H4.25024C3.83604 12.6943 3.50024 12.3585 3.50024 11.9443C3.50024 11.5577 3.79278 11.2394 4.16851 11.1987L4.25024 11.1943H8.97124ZM20.0002 4.5C20.4144 4.5 20.7502 4.8358 20.7502 5.25C20.7502 5.6366 20.4577 5.95487 20.082 5.9956L20.0002 6H4.25024C3.83604 6 3.50024 5.6642 3.50024 5.25C3.50024 4.8634 3.79278 4.54513 4.16851 4.5044L4.25024 4.5H20.0002Z" fill="white"/>
</svg>
