<svg width="24" height="24" viewBox="0 0 24 24" fill="none" xmlns="http://www.w3.org/2000/svg">
<path d="M19.75 5C20.164 5 20.5 5.336 20.5 5.75C20.5 6.165 20.164 6.5 19.75 6.5H5.75C5.336 6.5 5 6.165 5 5.75C5 5.336 5.336 5 5.75 5H19.75ZM11.993 11.496C12.406 11.496 12.743 11.832 12.743 12.246C12.743 12.661 12.406 12.996 11.993 12.996L5.75 13C5.336 13 5 12.665 5 12.25C5 11.836 5.336 11.5 5.75 11.5L11.993 11.496ZM11.993 17.998C12.406 17.998 12.743 18.334 12.743 18.748C12.743 19.163 12.406 19.498 11.993 19.498L5.75 19.5C5.336 19.5 5 19.165 5 18.75C5 18.336 5.336 18 5.75 18L11.993 17.998ZM19.854 11.12C20.256 11.12 20.406 11.35 20.452 11.449C20.498 11.548 20.577 11.811 20.316 12.117L18.014 14.744V19.193C18.014 19.606 17.678 19.942 17.265 19.942C16.852 19.942 16.516 19.606 16.516 19.193V14.734L14.212 12.117C13.952 11.811 14.03 11.548 14.076 11.449C14.122 11.35 14.272 11.12 14.675 11.12H19.854Z" fill="white"/>
</svg>
