<svg width="24" height="24" viewBox="0 0 24 24" fill="none" xmlns="http://www.w3.org/2000/svg">
<path d="M15.4872 9.22949C12.9204 9.22949 10.8391 11.3107 10.8391 13.8764C10.8391 16.4437 12.9199 18.5245 15.4872 18.5245C18.0544 18.5245 20.1352 16.4437 20.1352 13.8764C20.1352 11.3107 18.0539 9.22949 15.4872 9.22949ZM15.4872 10.7295C17.2254 10.7295 18.6352 12.1392 18.6352 13.8764C18.6352 15.6152 17.2259 17.0245 15.4872 17.0245C13.7484 17.0245 12.3391 15.6152 12.3391 13.8764C12.3391 12.1392 13.7489 10.7295 15.4872 10.7295Z" fill="white"/>
<path d="M17.7808 16.1692C18.0471 15.903 18.4638 15.8789 18.7574 16.0968L18.8415 16.1694L21.9675 19.2964C22.2603 19.5893 22.2602 20.0642 21.9673 20.3571C21.701 20.6233 21.2843 20.6474 20.9907 20.4295L20.9066 20.3569L17.7806 17.2299C17.4878 16.937 17.4879 16.4621 17.7808 16.1692Z" fill="white"/>
<path d="M18.813 3.9234C19.2272 3.9234 19.563 4.2591 19.563 4.6733C19.563 5.053 19.2808 5.3668 18.9147 5.4165L18.813 5.4233H2.56289C2.14869 5.4233 1.81299 5.0876 1.81299 4.6733C1.81299 4.2937 2.09509 3.9799 2.46119 3.9302L2.56289 3.9234H18.813Z" fill="white"/>
<path d="M7.91899 10.9136C8.33319 10.9136 8.66899 11.2493 8.66899 11.6636C8.66899 12.0432 8.38679 12.357 8.02069 12.4067L7.91899 12.4136H2.56289C2.14869 12.4136 1.81299 12.0778 1.81299 11.6636C1.81299 11.2839 2.09509 10.9701 2.46119 10.9204L2.56289 10.9136H7.91899Z" fill="white"/>
<path d="M7.91899 17.9233C8.33319 17.9233 8.66899 18.2591 8.66899 18.6733C8.66899 19.053 8.38679 19.3668 8.02069 19.4165L7.91899 19.4233H2.56289C2.14869 19.4233 1.81299 19.0876 1.81299 18.6733C1.81299 18.2937 2.09509 17.9799 2.46119 17.9302L2.56289 17.9233H7.91899Z" fill="white"/>
</svg>
