<svg width="24" height="24" viewBox="0 0 24 24" fill="none" xmlns="http://www.w3.org/2000/svg">
    <path d="M15.7499 12.6252H12.6249V15.7502C12.6249 16.1642 12.2889 16.5002 11.8749 16.5002C11.4609 16.5002 11.1249 16.1642 11.1249 15.7502V12.6252H7.99988C7.58588 12.6252 7.24988 12.2892 7.24988 11.8752C7.24988 11.4612 7.58588 11.1252 7.99988 11.1252H11.1249V8.00018C11.1249 7.58618 11.4609 7.25018 11.8749 7.25018C12.2889 7.25018 12.6249 7.58618 12.6249 8.00018V11.1252H15.7499C16.1639 11.1252 16.4999 11.4612 16.4999 11.8752C16.4999 12.2892 16.1639 12.6252 15.7499 12.6252ZM11.8749 3.50018C7.25688 3.50018 3.49988 7.25618 3.49988 11.8752C3.49988 16.4922 7.25688 20.2502 11.8749 20.2502C16.4939 20.2502 20.2499 16.4922 20.2499 11.8752C20.2499 7.25618 16.4939 3.50018 11.8749 3.50018Z" fill="white"/>
</svg>