<svg width="24" height="24" viewBox="0 0 24 24" fill="none" xmlns="http://www.w3.org/2000/svg">
<path fill-rule="evenodd" clip-rule="evenodd" d="M19.5 8.50092V10.5009C19.5 9.11892 18.38 8.00092 17 8.00092H7C5.62 8.00092 4.5 9.11892 4.5 10.5009V8.50092C4.5 7.11892 5.62 6.00092 7 6.00092H17C18.38 6.00092 19.5 7.11892 19.5 8.50092Z" fill="white"/>
<path d="M4.5 17.5C4.5 18.881 5.619 20 7 20H17C18.381 20 19.5 18.881 19.5 17.5M4.5 17.5V8.5C4.5 7.119 5.619 6 7 6H17C18.381 6 19.5 7.119 19.5 8.5V17.5M4.5 17.5V10.5C4.5 9.119 5.619 8 7 8H17C18.381 8 19.5 9.119 19.5 10.5V17.5M8.5 4V5.5M15.5 4V5.5" stroke="white" stroke-width="1.5" stroke-linecap="round" stroke-linejoin="round"/>
<path d="M15.25 11.5H15.75M11.7499 11.5H12.2499M8.25 11.5H8.75M15.25 14H15.75M11.7499 14H12.2499M8.25 14H8.75M15.25 16.5H15.75M11.7499 16.5H12.2499M8.25 16.5H8.75" stroke="white" stroke-width="1.5" stroke-linecap="round" stroke-linejoin="round"/>
</svg>
