<svg width="24" height="24" viewBox="0 0 24 24" fill="none" xmlns="http://www.w3.org/2000/svg">
<path d="M12.0228 2.49988C12.4025 2.49988 12.7163 2.78208 12.766 3.14808L12.7728 3.24988V20.7499C12.7728 21.1641 12.437 21.4999 12.0228 21.4999C11.6431 21.4999 11.3293 21.2177 11.2796 20.8517L11.2728 20.7499V3.24988C11.2728 2.83568 11.6086 2.49988 12.0228 2.49988ZM17.4789 6.50798L17.5645 6.57888L22.0858 10.9181C22.6628 11.4744 22.6967 12.3776 22.1866 12.974L22.0846 13.0821L17.5646 17.4211C17.2658 17.7079 16.791 17.6982 16.5041 17.3994C16.2434 17.1277 16.2277 16.7107 16.4515 16.4216L16.5258 16.3389L21.0459 11.9991L16.5259 7.66108C16.227 7.37428 16.2173 6.89948 16.5041 6.60068C16.7648 6.32898 17.1809 6.29618 17.4789 6.50798ZM7.54084 6.60038C7.80164 6.87198 7.81734 7.28898 7.59364 7.57818L7.51924 7.66078L3.00024 12.0007L7.51924 16.3387C7.81804 16.6256 7.82774 17.1004 7.54094 17.3992C7.28014 17.6708 6.86404 17.7035 6.56604 17.4917L6.48044 17.4209L1.96114 13.0826C1.38214 12.5261 1.34804 11.6217 1.85914 11.0258L1.96144 10.9178L6.48044 6.57878C6.77914 6.29188 7.25394 6.30158 7.54084 6.60038Z" fill="white"/>
</svg>
