<svg width="24" height="24" viewBox="0 0 24 24" fill="none" xmlns="http://www.w3.org/2000/svg">
<path fill-rule="evenodd" clip-rule="evenodd" d="M12.475 6.76188C11.6884 6.76188 11.05 6.12188 11.05 5.33328C11.05 4.54478 11.6884 3.90478 12.475 3.90478C13.2629 3.90478 13.9 4.54478 13.9 5.33328C13.9 6.12188 13.2629 6.76188 12.475 6.76188ZM12.475 20.0952C11.6884 20.0952 11.05 19.4552 11.05 18.6667C11.05 17.8781 11.6884 17.2381 12.475 17.2381C13.2629 17.2381 13.9 17.8781 13.9 18.6667C13.9 19.4552 13.2629 20.0952 12.475 20.0952ZM7.725 8.66668C6.9384 8.66668 6.3 8.02668 6.3 7.23808C6.3 6.44948 6.9384 5.80948 7.725 5.80948C8.5129 5.80948 9.15 6.44948 9.15 7.23808C9.15 8.02668 8.5129 8.66668 7.725 8.66668ZM7.725 18.1905C6.9384 18.1905 6.3 17.5505 6.3 16.7619C6.3 15.9733 6.9384 15.3333 7.725 15.3333C8.5116 15.3333 9.15 15.9733 9.15 16.7619C9.15 17.5505 8.5116 18.1905 7.725 18.1905ZM4.4 12C4.4 11.2114 5.0384 10.5714 5.825 10.5714C6.6129 10.5714 7.25 11.2114 7.25 12C7.25 12.7886 6.6129 13.4286 5.825 13.4286C5.0384 13.4286 4.4 12.7886 4.4 12ZM19.3987 13.791H16.1717C15.1646 13.791 14.3509 12.9588 14.3808 11.9451C14.4107 10.9648 15.2661 10.2089 16.247 10.2089H19.3999C20.9901 10.2089 22.0116 8.49788 21.2338 7.11158C19.4178 3.87818 15.8563 1.75518 11.8241 2.02268C6.7214 2.36058 2.6462 6.60658 2.504 11.7146C2.3463 17.3684 6.8851 22 12.5051 22C16.2506 22 19.5134 19.9427 21.2278 16.8979C22.0104 15.5081 20.9937 13.791 19.3987 13.791Z" fill="white"/>
</svg>
