<svg width="24" height="24" viewBox="0 0 24 24" fill="none" xmlns="http://www.w3.org/2000/svg">
    <path d="M13.06 11.9994L19.031 6.03042C19.324 5.73742 19.324 5.26342 19.031 4.97042C18.738 4.67742 18.262 4.67742 17.97 4.97042L11.999 10.9384L6.02999 4.97042C5.73699 4.67742 5.26199 4.67742 4.96899 4.97042C4.67599 5.26342 4.67599 5.73742 4.96899 6.03042L10.939 11.9994L4.96899 17.9704C4.67599 18.2634 4.67599 18.7374 4.96899 19.0304C5.11599 19.1774 5.30699 19.2494 5.49899 19.2494C5.69199 19.2494 5.88299 19.1774 6.02999 19.0304L11.999 13.0614L17.97 19.0304C18.116 19.1774 18.308 19.2494 18.5 19.2494C18.692 19.2494 18.884 19.1774 19.031 19.0304C19.324 18.7374 19.324 18.2634 19.031 17.9704L13.06 11.9994Z" fill="white"/>
</svg>