<svg width="24" height="24" viewBox="0 0 24 24" fill="none" xmlns="http://www.w3.org/2000/svg">
<path fill-rule="evenodd" clip-rule="evenodd" d="M4.45776 14.824L9.05776 19.424C9.05776 19.524 8.95776 19.524 8.85776 19.524L4.45776 20.324C3.95776 20.524 3.55776 20.124 3.65776 19.524L4.45776 15.124C4.55776 15.024 4.55776 14.924 4.45776 14.824ZM14.6578 4.22402C15.3578 3.42402 16.6578 3.42402 17.4578 4.22402L19.7578 6.52402C20.5578 7.32402 20.5578 8.52402 19.7578 9.32402L11.2578 17.824C11.0578 18.024 10.7578 18.024 10.5578 17.824L6.15776 13.424C5.95776 13.224 5.95776 12.924 6.15776 12.724L14.6578 4.22402Z" fill="white"/>
</svg>
