<svg width="24" height="24" viewBox="0 0 24 24" fill="none" xmlns="http://www.w3.org/2000/svg">
<path d="M15.5316 14.3178V13.4839C15.5316 12.1208 16.6448 11.0121 18.0132 11.0121C18.2087 11.0121 18.3979 11.0371 18.5804 11.0799V10.2835C18.5804 9.06979 17.5927 8.08629 16.3745 8.08629H15.3659C15.0626 8.08629 14.5787 8.08429 14.2905 8.08239C14.2905 8.08239 14.2905 8.08239 14.1154 8.08629C13.8447 8.09259 13.4799 8.11509 13.0514 7.87069C12.6303 7.63039 12.4111 7.12359 12.8967 6.40129C13.2827 5.82889 13.7297 5.56879 13.7297 4.79849C13.7297 3.04809 12.0907 2.07939 10.2576 2.41229C9.12051 2.61909 8.24151 3.57649 8.20641 4.72699C8.18301 5.50319 8.54171 5.77949 8.94541 6.31069C9.76761 7.39419 8.43501 7.89289 8.43501 7.89289C8.15131 7.99919 7.67071 8.08629 7.36741 8.08629H5.23041C4.01221 8.08629 3.02451 9.06979 3.02451 10.2835V10.4282C3.02451 10.7303 3.02451 11.139 3.02451 11.3365C3.02451 11.5336 3.04251 11.9418 3.06401 12.2431C3.06401 12.2431 3.18861 13.9808 4.96571 12.6432C5.44381 12.2823 5.70081 11.9599 6.37281 11.9599C7.94611 11.9599 8.84171 13.3727 8.62001 14.9945C8.46531 16.1255 7.55541 17.0395 6.40921 17.0598C5.66421 17.0733 5.39891 16.686 4.88081 16.2916C3.20381 15.0156 3.07061 16.6004 3.07061 16.6004C3.04521 16.9014 3.02451 17.3735 3.02451 17.6498C3.02451 17.9258 3.02451 18.399 3.02451 18.7011V19.3759C3.02451 20.5893 4.01221 21.5731 5.23041 21.5731H12.903C12.7809 21.2809 12.7125 20.9607 12.7125 20.6248C12.7125 19.7401 13.1815 18.9626 13.8849 18.5256L13.8574 18.4971C12.911 17.5136 12.9444 15.9459 13.9318 15.0025C14.3683 14.5864 14.9322 14.3458 15.5316 14.3178Z" fill="white"/>
<path d="M20.8238 19.8008H18.5382H18.4572C18.4869 19.789 18.5156 19.7742 18.5446 19.7602C18.6711 19.6978 18.7903 19.6182 18.8892 19.5152L20.9658 17.3573C21.2818 17.0288 21.2705 16.507 20.941 16.1922C20.6109 15.8772 20.0873 15.8885 19.7713 16.2169L18.8396 17.1848V13.4839C18.8396 13.2485 18.7395 13.0371 18.5801 12.8871C18.4321 12.747 18.233 12.66 18.0124 12.66C17.5558 12.66 17.1852 13.0288 17.1852 13.4839V17.193L16.246 16.2167C15.9295 15.8882 15.4059 15.8775 15.0764 16.192C14.7463 16.5067 14.7356 17.0285 15.0516 17.357L17.1281 19.5146C17.2497 19.6415 17.3986 19.7368 17.5599 19.8005H15.1936C14.7369 19.8005 14.3664 20.1694 14.3664 20.6245C14.3664 21.0796 14.7369 21.4484 15.1936 21.4484H17.1H20.8235C21.2801 21.4484 21.6507 21.0796 21.6507 20.6245C21.6507 20.1694 21.2804 19.8008 20.8238 19.8008Z" fill="white"/>
</svg>
