<svg width="24" height="24" viewBox="0 0 24 24" fill="none" xmlns="http://www.w3.org/2000/svg">
<path d="M4.98532 17H19.0148C19.238 17 19.4521 16.9113 19.61 16.7535C19.7679 16.5956 19.8565 16.3815 19.8565 16.1582C19.8565 15.935 19.7679 15.7209 19.61 15.563C19.4521 15.4052 19.238 15.3165 19.0148 15.3165H4.98532C4.76207 15.3165 4.54796 15.4052 4.3901 15.563C4.23224 15.7209 4.14355 15.935 4.14355 16.1582C4.14355 16.3815 4.23224 16.5956 4.3901 16.7535C4.54796 16.9113 4.76207 17 4.98532 17Z" fill="white"/>
<path d="M10.7767 14.0033C11.4052 14.6655 12.4265 14.7029 13.1 14.1193L13.2234 14.0033L19.3852 7.51609C19.7256 7.15694 19.7106 6.58828 19.3515 6.24783C19.026 5.93731 18.5247 5.92235 18.1805 6.19171L18.0832 6.2815L12 12.6827L5.91688 6.2815C5.60636 5.95227 5.10878 5.91112 4.74963 6.16178L4.64861 6.24783C4.31939 6.55835 4.27824 7.05592 4.5289 7.41508L4.61494 7.51609L10.7767 14.0033Z" fill="white"/>
</svg>
