<svg width="24" height="24" viewBox="0 0 24 24" fill="none" xmlns="http://www.w3.org/2000/svg">
<path d="M4.98532 7H19.0148C19.238 7 19.4521 7.08869 19.61 7.24655C19.7679 7.40441 19.8565 7.61852 19.8565 7.84177C19.8565 8.06502 19.7679 8.27912 19.61 8.43699C19.4521 8.59485 19.238 8.68353 19.0148 8.68353H4.98532C4.76207 8.68353 4.54796 8.59485 4.3901 8.43699C4.23224 8.27912 4.14355 8.06502 4.14355 7.84177C4.14355 7.61852 4.23224 7.40441 4.3901 7.24655C4.54796 7.08869 4.76207 7 4.98532 7Z" fill="white"/>
<path d="M10.7767 9.99669C11.4052 9.3345 12.4265 9.29709 13.1 9.88071L13.2234 9.99669L19.3852 16.4839C19.7256 16.8431 19.7106 17.4117 19.3515 17.7522C19.026 18.0627 18.5247 18.0777 18.1805 17.8083L18.0832 17.7185L12 11.3173L5.91688 17.7185C5.60636 18.0477 5.10878 18.0889 4.74963 17.8382L4.64861 17.7522C4.31939 17.4417 4.27824 16.9441 4.5289 16.5849L4.61494 16.4839L10.7767 9.99669Z" fill="white"/>
</svg>
