<svg width="24" height="24" viewBox="0 0 24 24" fill="none" xmlns="http://www.w3.org/2000/svg">
<path fill-rule="evenodd" clip-rule="evenodd" d="M18.7204 8.46198L13.6396 3.70139C12.6534 2.77675 11.1544 2.7647 10.1543 3.67487L4.89313 8.45957C4.32562 8.97553 4 9.71934 4 10.5017V17.2791C4 18.7824 5.17573 20 6.62475 20H8.25751C8.80874 20 9.25647 19.5359 9.25647 18.9645V13.3335C9.25647 12.8513 9.60535 12.3691 10.1868 12.3691H13.3977C13.9117 12.3691 14.328 12.8018 14.328 13.3347V18.9645C14.328 19.5359 14.7758 20 15.327 20H16.9598C18.4088 20 19.5833 18.7824 19.5833 17.2791V10.4776C19.5833 9.70969 19.2705 8.97674 18.7204 8.46198Z" fill="white"/>
</svg>
