<svg width="24" height="24" viewBox="0 0 24 24" fill="none" xmlns="http://www.w3.org/2000/svg">
<path d="M19 17.75C19.414 17.75 19.75 18.086 19.75 18.5C19.75 18.915 19.414 19.25 19 19.25H5C4.586 19.25 4.25 18.915 4.25 18.5C4.25 18.086 4.586 17.75 5 17.75H19ZM19 11.25C19.414 11.25 19.75 11.586 19.75 12C19.75 12.415 19.414 12.75 19 12.75H5C4.586 12.75 4.25 12.415 4.25 12C4.25 11.586 4.586 11.25 5 11.25H19ZM19 4.75C19.414 4.75 19.75 5.086 19.75 5.5C19.75 5.915 19.414 6.25 19 6.25H5C4.586 6.25 4.25 5.915 4.25 5.5C4.25 5.086 4.586 4.75 5 4.75H19Z" fill="white"/>
</svg>
