<svg width="24" height="24" viewBox="0 0 24 24" fill="none" xmlns="http://www.w3.org/2000/svg">
<path fill-rule="evenodd" clip-rule="evenodd" d="M7.112 10.078C8.96 8.22999 11.981 8.22999 13.829 10.078C14.121 10.371 14.121 10.846 13.829 11.138C13.536 11.431 13.061 11.431 12.768 11.138C11.506 9.87599 9.435 9.87599 8.173 11.138L5.697 13.614C4.434 14.877 4.434 16.948 5.697 18.21C6.96 19.473 9.031 19.473 10.293 18.21L11.531 16.973C11.824 16.68 12.299 16.68 12.592 16.973C12.885 17.266 12.884 17.741 12.591 18.034L11.354 19.27C9.506 21.119 6.485 21.119 4.636 19.27C2.788 17.423 2.788 14.402 4.636 12.554L7.112 10.078ZM12.553 4.63699C14.401 2.78799 17.422 2.78799 19.271 4.63699C21.119 6.48499 21.119 9.50499 19.271 11.353L16.795 13.829C14.947 15.677 11.926 15.677 10.079 13.829C9.786 13.536 9.786 13.062 10.079 12.769C10.371 12.476 10.846 12.476 11.139 12.769C12.401 14.031 14.472 14.031 15.735 12.769L18.211 10.293C19.473 9.03099 19.473 6.95899 18.211 5.69699C16.947 4.43399 14.876 4.43399 13.613 5.69699L12.376 6.93399C12.083 7.22699 11.608 7.22699 11.316 6.93399C11.023 6.64099 11.023 6.16699 11.316 5.87399L12.553 4.63699Z" fill="white"/>
</svg>
