<svg width="24" height="24" viewBox="0 0 24 24" fill="none" xmlns="http://www.w3.org/2000/svg">
<path fill-rule="evenodd" clip-rule="evenodd" d="M11.6 16.75C12.4684 16.75 13.1 17.3816 13.1 18.25C13.1 19.1184 12.4684 19.75 11.6 19.75C10.8105 19.75 10.1 19.1184 10.1 18.25C10.1 17.3816 10.7315 16.75 11.6 16.75ZM11.6 10.5C12.4684 10.5 13.1 11.1316 13.1 12C13.1 12.8684 12.4684 13.5 11.6 13.5C10.8105 13.5 10.1 12.8684 10.1 12C10.1 11.1316 10.7315 10.5 11.6 10.5ZM11.6 4.25C12.3894 4.25 13.1 4.88157 13.1 5.75C13.1 6.61843 12.4684 7.25 11.6 7.25C10.8105 7.25 10.1 6.61843 10.1 5.75C10.1 4.88157 10.7315 4.25 11.6 4.25Z" fill="white"/>
</svg>
