<svg width="24" height="24" viewBox="0 0 24 24" fill="none" xmlns="http://www.w3.org/2000/svg">
    <path d="M4.92191 18.2817L5.72222 19.082L5.44362 19.359C5.16982 19.6336 4.53482 19.9058 4.31282 19.6846C4.09412 19.4627 4.36472 18.835 4.63922 18.5579L4.92191 18.2817ZM15.6609 5.9292L16.6864 6.9531L17.0403 7.3087L18.065 8.3317L10.7248 15.6711C10.2801 16.1166 8.02022 18.1124 6.40342 18.4858L5.50842 17.5908C5.88422 15.9724 7.87762 13.7141 8.32232 13.2686L15.6609 5.9292ZM16.9464 4.4882C17.2582 4.178 17.7305 4.148 18.0034 4.4202L19.5789 5.9989C19.8543 6.2702 19.8235 6.7433 19.5125 7.0543C19.2014 7.3645 18.7292 7.3945 18.4562 7.1207L16.8783 5.5437C16.6054 5.2715 16.6353 4.7985 16.9464 4.4882Z" fill="white"/>
</svg>