<svg width="24" height="24" viewBox="0 0 24 24" fill="none" xmlns="http://www.w3.org/2000/svg">
<path d="M16.7206 12.7654L12.9036 16.7644C12.6686 17.0094 12.3396 17.1514 11.9996 17.1514C11.6596 17.1514 11.3296 17.0094 11.0956 16.7634L7.27963 12.7654C6.99263 12.4654 7.00463 11.9914 7.30363 11.7044C7.60363 11.4184 8.07763 11.4304 8.36463 11.7304L11.2496 14.7524V6.8744C11.2496 6.4604 11.5856 6.1244 11.9996 6.1244C12.4136 6.1244 12.7496 6.4604 12.7496 6.8744V14.7534L15.6356 11.7304C15.9216 11.4304 16.3966 11.4184 16.6966 11.7044C16.9956 11.9914 17.0066 12.4654 16.7206 12.7654ZM17.4996 3.9994H6.49963C5.12463 3.9994 3.99963 5.1244 3.99963 6.4994V17.4994C3.99963 18.8744 5.12463 19.9994 6.49963 19.9994H17.4996C18.8746 19.9994 19.9996 18.8744 19.9996 17.4994V6.4994C19.9996 5.1244 18.8746 3.9994 17.4996 3.9994Z" fill="white"/>
</svg>
