<svg width="24" height="24" viewBox="0 0 24 24" fill="none" xmlns="http://www.w3.org/2000/svg">
<path fill-rule="evenodd" clip-rule="evenodd" d="M12.3861 21.9391C13.2979 21.5682 14.8825 20.7684 16.3652 19.5086C18.902 17.3521 20.1895 14.7529 20.1895 11.7793V5.56272C20.1895 4.71324 19.5631 4.0014 18.724 3.873C16.4889 3.53208 14.627 2.88036 12.6727 1.96032C12.2162 1.7466 11.6857 1.7466 11.2292 1.96032C9.27489 2.87916 7.41308 3.53208 5.17676 3.873C4.33772 4.0014 3.71252 4.71324 3.71252 5.56272V11.7793C3.71252 14.7529 4.99988 17.3521 7.53668 19.5086C9.0206 20.7684 10.604 21.5682 11.5159 21.9391C11.7955 22.0536 12.1064 22.0536 12.3861 21.9391Z" fill="white"/>
</svg>
