<svg width="24" height="24" viewBox="0 0 24 24" fill="none" xmlns="http://www.w3.org/2000/svg">
<path d="M11.6613 5.1277C12.2753 4.5757 12.7773 4.8007 12.7773 5.6247V18.3747C12.7773 19.1997 12.2753 19.4237 11.6613 18.8727L7.08226 15.0087V14.9707C6.98526 14.9867 6.88726 14.9977 6.78626 14.9977H4.69226C3.72926 14.9977 2.94226 14.2097 2.94226 13.2477V10.7477C2.94226 9.7847 3.72926 8.9977 4.69226 8.9977H6.78626C6.88726 8.9977 6.98526 9.0087 7.08226 9.0247V8.9907L11.6613 5.1277ZM17.0789 5.4899C17.3609 5.1859 17.8359 5.1689 18.1389 5.4499C20.0219 7.1969 21.0579 9.5229 21.0579 12.0009C21.0579 14.4779 20.0209 16.8039 18.1389 18.5499C17.9939 18.6839 17.8119 18.7499 17.6289 18.7499C17.4279 18.7499 17.2269 18.6699 17.0789 18.5109C16.7969 18.2069 16.8159 17.7319 17.1189 17.4499C18.6919 15.9919 19.5579 14.0559 19.5579 12.0009C19.5579 9.9449 18.6919 8.0099 17.1189 6.5499C16.8159 6.2679 16.7969 5.7939 17.0789 5.4899ZM14.948 8.3588C15.233 8.0598 15.707 8.0458 16.009 8.3308C17.041 9.3088 17.61 10.6108 17.611 11.9998C17.611 13.3888 17.041 14.6918 16.009 15.6698C15.863 15.8078 15.678 15.8748 15.493 15.8748C15.294 15.8748 15.096 15.7968 14.948 15.6418C14.663 15.3408 14.677 14.8648 14.978 14.5808C15.708 13.8888 16.111 12.9728 16.111 11.9998C16.11 11.0278 15.708 10.1108 14.978 9.4198C14.677 9.1348 14.663 8.6598 14.948 8.3588Z" fill="white"/>
</svg>
