<svg width="24" height="24" viewBox="0 0 24 24" fill="none" xmlns="http://www.w3.org/2000/svg">
<path d="M12.0637 17.5094V20.6409M12.0637 3.35999V6.49055M12.0637 10.5552V13.4457" stroke="white" stroke-width="1.44" stroke-linecap="round" stroke-linejoin="round"/>
<path fill-rule="evenodd" clip-rule="evenodd" d="M15.9673 8.83919C15.9673 8.02991 16.9081 7.58543 17.5331 8.09903L21.3779 11.2603C21.8445 11.6434 21.8445 12.3566 21.3779 12.7397L17.5331 15.901C16.9081 16.4146 15.9673 15.9701 15.9673 15.1608V8.83919ZM8.16014 8.83919V15.1608C8.16014 15.9701 7.21934 16.4146 6.59438 15.901L2.74958 12.7397C2.28302 12.3566 2.28302 11.6434 2.74958 11.2603L6.59438 8.09903C7.21934 7.58543 8.16014 8.02991 8.16014 8.83919Z" fill="white"/>
</svg>
