<svg width="24" height="24" viewBox="0 0 24 24" fill="none" xmlns="http://www.w3.org/2000/svg">
<path fill-rule="evenodd" clip-rule="evenodd" d="M17.215 4.0545H6.785C5.111 4.0545 3.75 5.4155 3.75 7.0895C3.75 7.5035 4.086 7.8395 4.5 7.8395C4.914 7.8395 5.25 7.5035 5.25 7.0895C5.25 6.2425 5.939 5.5545 6.785 5.5545H11.25V18.4455H9.31C8.895 18.4455 8.56 18.7805 8.56 19.1955C8.56 19.6095 8.895 19.9455 9.31 19.9455H14.691C15.105 19.9455 15.441 19.6095 15.441 19.1955C15.441 18.7805 15.105 18.4455 14.691 18.4455H12.75V5.5545H17.215C18.062 5.5545 18.75 6.2425 18.75 7.0895C18.75 7.5035 19.086 7.8395 19.5 7.8395C19.914 7.8395 20.25 7.5035 20.25 7.0895C20.25 5.4155 18.889 4.0545 17.215 4.0545Z" fill="white"/>
</svg>
