<svg width="24" height="24" viewBox="0 0 24 24" fill="none" xmlns="http://www.w3.org/2000/svg">
<path fill-rule="evenodd" clip-rule="evenodd" d="M15.005 12.456H12.196C11.508 12.456 10.946 11.894 10.946 11.206V7.456C10.946 7.042 11.282 6.706 11.696 6.706C12.111 6.706 12.446 7.042 12.446 7.456V10.956H15.005C15.419 10.956 15.755 11.292 15.755 11.706C15.755 12.12 15.419 12.456 15.005 12.456ZM12 3.625C7.382 3.625 3.625 7.382 3.625 12C3.625 16.618 7.382 20.375 12 20.375C16.618 20.375 20.375 16.618 20.375 12C20.375 7.382 16.618 3.625 12 3.625Z" fill="white"/>
</svg>
