<svg width="24" height="24" viewBox="0 0 24 24" fill="none" xmlns="http://www.w3.org/2000/svg">
<path d="M14.9272 8.8317V5.74969C14.9272 4.64469 14.0312 3.74969 12.9272 3.74969H6.25024C4.86924 3.74969 3.75024 4.86869 3.75024 6.24969V12.9277C3.75024 14.0317 4.64524 14.9277 5.75024 14.9277H6.26924" stroke="white" stroke-width="1.5" stroke-linecap="round" stroke-linejoin="round"/>
<path d="M9.07275 8.2995V17.7495C9.07275 19.1305 10.1918 20.2495 11.5728 20.2495H17.7498C19.1308 20.2495 20.2498 19.1305 20.2498 17.7495V12.1045C20.2498 10.9995 19.3548 10.1045 18.2498 10.1045H17.8228" stroke="white" stroke-width="1.5" stroke-linecap="round" stroke-linejoin="round"/>
<path d="M6.75244 9.72531L8.71944 7.75831C8.91444 7.56331 9.23144 7.56331 9.42644 7.75831L11.3934 9.72531" stroke="white" stroke-width="1.5" stroke-linecap="round" stroke-linejoin="round"/>
<path d="M17.2474 6.5856L15.2804 8.5526C15.0854 8.7466 14.7684 8.7466 14.5734 8.5526L12.6064 6.5856" stroke="white" stroke-width="1.5" stroke-linecap="round" stroke-linejoin="round"/>
<path d="M12.1162 17.3689L14.5002 12.1899C14.5892 11.9959 14.8652 11.9959 14.9542 12.1899L17.3402 17.3689" stroke="white" stroke-width="1.5" stroke-linecap="round" stroke-linejoin="round"/>
<path d="M13.3535 15.2399H16.1035" stroke="white" stroke-width="1.5" stroke-linecap="round" stroke-linejoin="round"/>
</svg>
