<svg xmlns="http://www.w3.org/2000/svg"
     width="108"
     height="108"
     viewBox="0 0 108 108">

  <!-- Уменьшено до 60%, центрировано -->
  <g>

    <!-- Фоновый круг -->
    <path
      d="M10.84932 55c0 -24.38375 19.76693 -44.15068 44.15068 -44.15068c24.38375 0 44.15068 19.76693 44.15068 44.15068c0 24.38375 -19.76693 44.15068 -44.15068 44.15068c-24.38375 0 -44.15068 -19.76693 -44.15068 -44.15068z"
      fill="#FFFFFF"/>

    <!-- Вертикальная стрелка -->
    <path
      d="M50.96806 55.09244c0 -5.01787 0 -26.9476 0 -36.13696c0 -2.51381 2.60995 -4.07422 3.93789 -4.07422c1.35928 0 4.12598 1.56017 4.12598 4.07422c0 9.21798 0 31.25976 0 36.23876c0 1.95521 -2.6815 3.8377 -4.02418 3.8377c-1.34527 0 -4.03969 -1.93925 -4.03969 -3.9395z"
      fill="#1E1E1E"
      stroke="#1E1E1E"
      stroke-width="2.5"/>

    <!-- Диагональная стрелка -->
    <path
      d="M57.56953 51.83388c3.54817 3.54817 10.49076 10.49076 16.98862 16.98862c1.77753 1.77753 1.03539 4.72643 0.0964 5.66542c-0.96116 0.96116 -4.02072 1.81429 -5.79841 0.0366c-6.5181 -6.5181 -13.53992 -13.53992 -17.0606 -17.0606c-1.38254 -1.38254 -0.81756 -4.60977 0.13186 -5.5592c0.95125 -0.95125 4.22775 -1.48523 5.64214 -0.07084z"
      fill="#1E1E1E"
      stroke="#1E1E1E"
      stroke-width="2.5"/>

    <!-- Центральная точка -->
    <path
      d="M50.96806 55c0 -2.22678 1.80516 -4.03194 4.03194 -4.03194c2.22678 0 4.03194 1.80516 4.03194 4.03194c0 2.22678 -1.80516 4.03194 -4.03194 4.03194c-2.22678 0 -4.03194 -1.80516 -4.03194 -4.03194z"
      fill="#1E1E1E"
      stroke="#1E1E1E"
      stroke-width="2.5"/>

  </g>
</svg>